<svg width="16" height="18" viewBox="0 0 16 18" fill="none" xmlns="http://www.w3.org/2000/svg">
<path d="M14.6666 7.33334C14.6666 12.3333 7.99992 17.3333 7.99992 17.3333C7.99992 17.3333 1.33325 12.3333 1.33325 7.33334C1.33325 5.56523 2.03563 3.86954 3.28587 2.61929C4.53612 1.36905 6.23181 0.666672 7.99992 0.666672C9.76803 0.666672 11.4637 1.36905 12.714 2.61929C13.9642 3.86954 14.6666 5.56523 14.6666 7.33334Z" stroke="#A1A1AA" stroke-width="1.25" stroke-linecap="round" stroke-linejoin="round"/>
<path d="M7.99992 9.83334C9.38063 9.83334 10.4999 8.71405 10.4999 7.33334C10.4999 5.95263 9.38063 4.83334 7.99992 4.83334C6.61921 4.83334 5.49992 5.95263 5.49992 7.33334C5.49992 8.71405 6.61921 9.83334 7.99992 9.83334Z" stroke="#A1A1AA" stroke-width="1.25" stroke-linecap="round" stroke-linejoin="round"/>
</svg>
