<svg width="18" height="18" viewBox="0 0 18 18" fill="none" xmlns="http://www.w3.org/2000/svg">
<path d="M9.48842 1.15499C9.17593 0.842408 8.75207 0.666751 8.31008 0.666656H2.33341C1.89139 0.666656 1.46746 0.842251 1.1549 1.15481C0.842343 1.46737 0.666748 1.8913 0.666748 2.33332V8.30999C0.666842 8.75198 0.842499 9.17584 1.15508 9.48832L8.40842 16.7417C8.78718 17.118 9.29945 17.3293 9.83342 17.3293C10.3674 17.3293 10.8797 17.118 11.2584 16.7417L16.7417 11.2583C17.1181 10.8796 17.3294 10.3673 17.3294 9.83332C17.3294 9.29936 17.1181 8.78708 16.7417 8.40832L9.48842 1.15499Z" stroke="#A1A1AA" stroke-width="1.25" stroke-linecap="round" stroke-linejoin="round"/>
<path d="M5.25008 5.66666C5.4802 5.66666 5.66675 5.48011 5.66675 5.24999C5.66675 5.01987 5.4802 4.83332 5.25008 4.83332C5.01996 4.83332 4.83341 5.01987 4.83341 5.24999C4.83341 5.48011 5.01996 5.66666 5.25008 5.66666Z" stroke="#A1A1AA" stroke-width="1.25" stroke-linecap="round" stroke-linejoin="round"/>
</svg>
